<?xml version="1.0" encoding="UTF-8"?>
<svg width="25px" height="25px" viewBox="0 0 25 25" version="1.1" xmlns="http://www.w3.org/2000/svg" xmlns:xlink="http://www.w3.org/1999/xlink">
    <title>Fill 1</title>
    <g id="OTHER-PAGE" stroke="none" stroke-width="1" fill="none" fill-rule="evenodd">
        <g id="商品詳細" transform="translate(-950.000000, -325.000000)" fill="#3C5A9A">
            <g id="SNSアイコン" transform="translate(894.000000, 325.000000)">
                <path d="M77.2606563,0 L59.7393437,0 C57.6822057,0 56,1.68225365 56,3.73873745 L56,21.2612625 C56,23.3177464 57.6822057,25 59.7393437,25 L70.2859179,25 L70.2859179,14.0240078 L67.8552733,14.0240078 L67.8552733,10.7143875 L70.2859179,10.7143875 L70.2859179,7.88805885 C70.2859179,5.66691378 71.7214952,3.62753764 75.0288826,3.62753764 C76.3675192,3.62753764 77.3583098,3.75584512 77.3583098,3.75584512 L77.2806147,6.84591697 C77.2806147,6.84591697 76.2698657,6.8359375 75.1685912,6.8359375 C73.9753657,6.8359375 73.7850483,7.38552121 73.7850483,8.29864279 L73.7850483,8.44976049 L73.7850483,10.7143875 L77.3747042,10.7143875 L77.219314,14.0240078 L73.7850483,14.0240078 L73.7850483,25 L77.2613691,25 C79.3177943,25 81,23.3184592 81,21.2619754 L81,3.73873745 C81,1.68225365 79.3170815,0 77.2606563,0" id="Fill-1"></path>
            </g>
        </g>
    </g>
</svg>