<?xml version="1.0" encoding="UTF-8"?>
<svg width="31px" height="24px" viewBox="0 0 31 24" version="1.1" xmlns="http://www.w3.org/2000/svg" xmlns:xlink="http://www.w3.org/1999/xlink">
    <title>Fill 1</title>
    <g id="OTHER-PAGE" stroke="none" stroke-width="1" fill="none" fill-rule="evenodd">
        <g id="商品詳細" transform="translate(-894.000000, -325.000000)" fill="#1DA1F3">
            <g id="SNSアイコン" transform="translate(894.000000, 325.000000)">
                <path d="M31,2.84064624 C29.8597326,3.32303346 28.6342047,3.64862717 27.3471408,3.79482652 C28.6601535,3.04476031 29.6684524,1.85750861 30.1436874,0.442129425 C28.9144524,1.13710603 27.553249,1.64138783 26.1045608,1.91401077 C24.9450171,0.735234396 23.2917035,0 21.4626791,0 C17.9499438,0 15.1022409,2.71210382 15.1022409,6.05844442 C15.1022409,6.53376887 15.158587,6.99567405 15.2668309,7.43921603 C9.98141726,7.18566258 5.29431038,4.77443277 2.15894578,1.10885495 C1.61031258,2.00300168 1.29744338,3.04405403 1.29744338,4.15432153 C1.29744338,6.25690827 2.41917585,8.11088549 4.12586994,9.19784586 C3.08420826,9.16606339 2.10259967,8.89344045 1.24554564,8.44001059 C1.24480425,8.46473029 1.24480425,8.49086254 1.24480425,8.51628851 C1.24480425,11.4508696 3.43711286,13.9002384 6.34709301,14.4567847 C5.81254634,14.595215 5.2513094,14.6693741 4.67079616,14.6693741 C4.26154545,14.6693741 3.86267429,14.6312351 3.47418267,14.5606074 C4.28452874,16.9675995 6.63327195,18.7191666 9.41647335,18.768606 C7.23899266,20.3937494 4.49730945,21.3620553 1.51615526,21.3620553 C1.00385048,21.3620553 0.496735465,21.3338042 0,21.277302 C2.81434004,22.9963803 6.15729558,24 9.74936025,24 C21.4478511,24 27.8446177,14.7675466 27.8446177,6.76119008 C27.8446177,6.49845502 27.8379451,6.23713252 27.8268242,5.97651629 C29.0694043,5.12192107 30.1473944,4.05614902 31,2.84064624" id="Fill-1"></path>
            </g>
        </g>
    </g>
</svg>