<?xml version="1.0" encoding="UTF-8"?>
<svg width="15px" height="15px" viewBox="0 0 15 15" version="1.1" xmlns="http://www.w3.org/2000/svg" xmlns:xlink="http://www.w3.org/1999/xlink">
    <title>menu</title>
    <g id="TOP" stroke="none" stroke-width="1" fill="none" fill-rule="evenodd">
        <g id="サイドナビゲーション" transform="translate(-327.000000, -48.000000)" fill="#000000">
            <g id="01-Header" transform="translate(30.000000, 40.000000)">
                <path d="M298.707107,8.29289322 L304.364,13.949 L310.020815,8.29289322 C310.41134,7.90236893 311.044505,7.90236893 311.435029,8.29289322 C311.825553,8.68341751 311.825553,9.31658249 311.435029,9.70710678 L305.779,15.364 L311.435029,21.0208153 C311.825553,21.4113396 311.825553,22.0445046 311.435029,22.4350288 C311.044505,22.8255531 310.41134,22.8255531 310.020815,22.4350288 L304.364,16.779 L298.707107,22.4350288 C298.316582,22.8255531 297.683418,22.8255531 297.292893,22.4350288 C296.902369,22.0445046 296.902369,21.4113396 297.292893,21.0208153 L302.949,15.364 L297.292893,9.70710678 C296.902369,9.31658249 296.902369,8.68341751 297.292893,8.29289322 C297.683418,7.90236893 298.316582,7.90236893 298.707107,8.29289322 Z" id="menu"></path>
            </g>
        </g>
    </g>
</svg>