<?xml version="1.0" encoding="UTF-8"?>
<svg width="21px" height="19px" viewBox="0 0 21 19" version="1.1" xmlns="http://www.w3.org/2000/svg" xmlns:xlink="http://www.w3.org/1999/xlink">
    <title>Fill 13</title>
    <g id="OTHER-PAGE" stroke="none" stroke-width="1" fill="none" fill-rule="evenodd">
        <g id="商品詳細" transform="translate(-555.000000, -601.000000)" fill="#191210">
            <g id="【ボタン】購入する商品を選択する" transform="translate(535.000000, 585.000000)">
                <g id="ラベル" transform="translate(20.000000, 16.000000)">
                    <path d="M13.2879194,14.4624261 C14.3360933,14.4624261 15.1870499,15.3133826 15.1870499,16.3615565 C15.1870499,17.4106435 14.3360933,18.260687 13.2879194,18.260687 C12.2388325,18.260687 11.388789,17.4106435 11.388789,16.3615565 C11.388789,15.3133826 12.2388325,14.4624261 13.2879194,14.4624261 Z M4.96799333,14.4624261 C6.01616724,14.4624261 6.86712376,15.3133826 6.86712376,16.3615565 C6.86712376,17.4106435 6.01616724,18.260687 4.96799333,18.260687 C3.91981942,18.260687 3.06886289,17.4106435 3.06886289,16.3615565 C3.06886289,15.3133826 3.91981942,14.4624261 4.96799333,14.4624261 Z M20.120589,4.61852778e-14 C20.5606759,4.61852778e-14 20.9176759,0.357 20.9176759,0.797086957 C20.9176759,1.23717391 20.5606759,1.59417391 20.120589,1.59417391 L20.120589,1.59417391 L19.8366325,1.59417391 C19.4440238,1.59417391 19.0961542,1.84526087 18.9719803,2.21778261 L18.9719803,2.21778261 L16.3442412,11.6157391 C15.9908933,12.6776087 15.0358499,13.3660435 13.9557194,13.3660435 L13.9557194,13.3660435 L3.06858898,13.3660435 C2.62941507,13.3660435 2.27150202,13.0090435 2.27150202,12.5689565 C2.27150202,12.1279565 2.62941507,11.7718696 3.06858898,11.7718696 L3.06858898,11.7718696 L13.9557194,11.7718696 C14.3483281,11.7718696 14.6961977,11.5207826 14.8203716,11.1482609 L14.8203716,11.1482609 L14.9637194,10.6360435 L4.0601542,10.6360435 C2.98093681,10.6360435 2.02589333,9.94852174 1.68350202,8.92226087 L1.68350202,8.92226087 L0.0226759376,2.15478261 C-0.0348458015,1.9173913 0.0181107203,1.66630435 0.169675938,1.47365217 C0.321241155,1.28008696 0.552241155,1.16778261 0.796936807,1.16778261 L0.796936807,1.16778261 L14.7427629,1.16778261 C15.1837629,1.16778261 15.5407629,1.52569565 15.5407629,1.96578261 C15.5407629,2.40586957 15.1837629,2.76286957 14.7427629,2.76286957 L14.7427629,2.76286957 L1.8131542,2.76286957 L3.21284985,8.48126087 C3.32058898,8.79169565 3.6675455,9.04095652 4.0601542,9.04095652 L4.0601542,9.04095652 L15.4092846,9.04095652 L17.4481107,1.75121739 C17.8014585,0.689347826 18.756502,4.61852778e-14 19.8366325,4.61852778e-14 L19.8366325,4.61852778e-14 Z" id="Fill-13"></path>
                </g>
            </g>
        </g>
    </g>
</svg>